<svg width="22" height="22" viewBox="0 0 22 22" fill="none" xmlns="http://www.w3.org/2000/svg">
<path d="M12.375 0C9.0475 0 6.1325 2.365 5.5 5.5C2.475 5.5 0 7.975 0 11C0 12.0175 0.3025 12.9525 0.77 13.75H8.25V12.375C8.25 10.0925 10.0925 8.25 12.375 8.25C14.6575 8.25 16.5 10.0925 16.5 12.375V13.75H21.7525C21.9175 13.31 22 12.87 22 12.375C22 10.5875 20.845 8.8275 19.25 8.25V6.875C19.25 3.08 16.17 0 12.375 0ZM11.935 11C11.6504 11.0957 11.4049 11.2819 11.2361 11.5302C11.0673 11.7784 10.9843 12.0752 11 12.375V16.5H6.875L12.375 22L17.875 16.5H13.75V12.375C13.7533 12.1716 13.7115 11.97 13.6275 11.7847C13.5434 11.5994 13.4194 11.4351 13.2642 11.3035C13.1089 11.172 12.9265 11.0765 12.7299 11.0241C12.5334 10.9716 12.3276 10.9634 12.1275 11C12.0725 10.9967 12.0175 10.9967 11.9625 11H11.935Z" fill="#0DE0FD"/>
</svg>
